Coordinates
version=1
nRows=17
nColumns=40
inDegrees=yes

Units are S.I. units (second, meters, Newtons, ...)
If the header above contains a line with 'inDegrees', this indicates whether rotational values are in degrees (yes) or radians (no).

endheader
time	pelvis_tilt	pelvis_list	pelvis_rotation	pelvis_tx	pelvis_ty	pelvis_tz	hip_flexion_r	hip_adduction_r	hip_rotation_r	knee_angle_r	knee_angle_r_beta	ankle_angle_r	subtalar_angle_r	mtp_angle_r	hip_flexion_l	hip_adduction_l	hip_rotation_l	knee_angle_l	knee_angle_l_beta	ankle_angle_l	subtalar_angle_l	mtp_angle_l	lumbar_extension	lumbar_bending	lumbar_rotation	arm_flex_r	arm_add_r	arm_rot_r	elbow_flex_r	pro_sup_r	wrist_flex_r	wrist_dev_r	arm_flex_l	arm_add_l	arm_rot_l	elbow_flex_l	pro_sup_l	wrist_flex_l	wrist_dev_l
      6.31000000	    -28.86150896	     -1.75982950	      0.99437471	     -0.30659831	      0.67249957	     -0.84179352	     86.52827845	    -28.37376234	     -2.46778327	     93.93640647	      1.63949958	     31.13102936	      0.00000000	      0.00000000	     84.96772396	    -31.95246217	      2.00453782	     92.93031040	      1.62193989	     33.61710460	      0.00000000	      0.00000000	    -18.25002401	     -0.64693163	      6.72826340	    -30.01424520	    -51.03543883	     38.51577994	     94.62931012	     87.80967754	      0.00000000	      0.00000000	    -13.27779902	    -56.34119398	     50.86645689	     98.35953336	     87.82902006	      0.00000000	      0.00000000
      6.31500000	    -30.06097052	     -1.70822633	      1.10566041	     -0.30958383	      0.66696953	     -0.84227625	     88.50622482	    -28.63903471	     -2.12777764	     94.41908484	      1.64792391	     30.96265718	      0.00000000	      0.00000000	     86.86960433	    -31.61012784	      2.38849790	     93.45581034	      1.63111160	     33.62341738	      0.00000000	      0.00000000	    -17.47006009	     -0.59824321	      6.46852227	    -29.90039812	    -51.09127835	     38.91996142	     94.66380930	     87.82463721	      0.00000000	      0.00000000	    -13.10755742	    -56.54652526	     51.44762922	     98.49270077	     87.85065165	      0.00000000	      0.00000000
      6.32000000	    -30.21079237	     -2.02838050	      1.18132851	     -0.31046792	      0.66384654	     -0.84228390	     88.82615287	    -28.88955020	     -2.50319343	     94.86344686	      1.65567949	     30.89390162	      0.00000000	      0.00000000	     87.74628692	    -31.72808626	      2.92197651	     93.95084039	      1.63975150	     33.54060870	      0.00000000	      0.00000000	    -17.83170560	     -0.18147417	      6.45055736	    -29.49310691	    -51.08075688	     39.31277264	     94.47496135	     87.81558052	      0.00000000	      0.00000000	    -12.64426795	    -56.56300320	     52.02263748	     98.33951753	     87.84622971	      0.00000000	      0.00000000
      6.32500000	    -30.76658311	     -1.79770452	      1.24802665	     -0.31228803	      0.65982003	     -0.84261191	     90.08264998	    -29.19547310	     -2.08329426	     95.31549302	      1.66356918	     30.98702627	      0.00000000	      0.00000000	     88.64766245	    -31.61076732	      2.81776639	     94.40302052	      1.64764353	     33.59464637	      0.00000000	      0.00000000	    -17.75034931	     -0.34142281	      6.23490345	    -29.44130660	    -51.04103115	     39.33866298	     94.53944558	     87.80961687	      0.00000000	      0.00000000	    -12.45997073	    -56.77732643	     52.30415580	     98.47955208	     87.84960650	      0.00000000	      0.00000000
      6.33000000	    -30.92771873	     -1.78962981	      1.26723446	     -0.31337798	      0.65670230	     -0.84257183	     90.65312996	    -29.42110288	     -2.04434169	     95.74780670	      1.67111448	     31.03816694	      0.00000000	      0.00000000	     89.24093253	    -31.71511026	      2.90167207	     94.84765755	      1.65540391	     33.70388678	      0.00000000	      0.00000000	    -18.09477528	     -0.29111585	      6.13504188	    -29.29753425	    -50.97462183	     39.28623084	     94.54013179	     87.80429350	      0.00000000	      0.00000000	    -12.33091278	    -56.88101328	     52.33252103	     98.46672330	     87.84798919	      0.00000000	      0.00000000
      6.33500000	    -31.58220947	     -1.78770665	      1.30706232	     -0.31519397	      0.65279547	     -0.84269825	     91.83769297	    -29.63339726	     -1.90561752	     96.13588257	      1.67788768	     30.88866090	      0.00000000	      0.00000000	     90.42675327	    -31.58232587	      3.21486026	     95.26172620	      1.66263077	     33.64023480	      0.00000000	      0.00000000	    -17.84489317	     -0.22934589	      6.04428606	    -29.49965159	    -51.06344995	     39.25398164	     94.68114901	     87.80386355	      0.00000000	      0.00000000	    -12.34035562	    -57.15221128	     52.58266097	     98.78378052	     87.84988555	      0.00000000	      0.00000000
      6.34000000	    -31.78806465	     -1.79222464	      1.27362740	     -0.31632037	      0.64972271	     -0.84265333	     92.45451416	    -29.83869402	     -1.91356109	     96.54005992	      1.68494191	     30.91977019	      0.00000000	      0.00000000	     91.08569818	    -31.72431942	      3.33505905	     95.72396500	      1.67069836	     33.71115638	      0.00000000	      0.00000000	    -18.10268367	     -0.17472955	      6.03676393	    -29.51276028	    -51.06957664	     39.18938474	     94.71485580	     87.80295473	      0.00000000	      0.00000000	    -12.28303207	    -57.27955012	     52.57349264	     98.85659621	     87.84560778	      0.00000000	      0.00000000
      6.34500000	    -32.08684892	     -1.80140680	      1.24011909	     -0.31754241	      0.64655465	     -0.84259641	     93.18523328	    -30.00277951	     -1.87170633	     96.94949967	      1.69208798	     30.90242257	      0.00000000	      0.00000000	     91.87074902	    -31.78795731	      3.56817609	     96.17544037	      1.67857809	     33.72578957	      0.00000000	      0.00000000	    -18.21296889	     -0.11619932	      6.04429252	    -29.68207004	    -51.15077675	     39.11850544	     94.84445057	     87.80286368	      0.00000000	      0.00000000	    -12.31813065	    -57.49514839	     52.58295802	     99.12111520	     87.84441625	      0.00000000	      0.00000000
      6.35000000	    -32.60425342	     -1.94612318	      1.32017593	     -0.31921632	      0.64327193	     -0.84260600	     94.05710243	    -30.24294023	     -1.97554713	     97.22803251	      1.69694929	     30.62880646	      0.00000000	      0.00000000	     92.98655109	    -31.65864360	      4.02950460	     96.47802807	      1.68385925	     33.43644739	      0.00000000	      0.00000000	    -18.09207095	      0.10235117	      6.03964973	    -30.21165025	    -51.24841042	     38.68735494	     95.15492576	     87.80595028	      0.00000000	      0.00000000	    -12.46492276	    -57.83548400	     52.48358391	     99.68994071	     87.83137029	      0.00000000	      0.00000000
      6.35500000	    -32.80454444	     -1.96930967	      1.27064429	     -0.32030814	      0.64034049	     -0.84260888	     94.66235860	    -30.42987942	     -1.99999931	     97.60226986	      1.70348097	     30.52290494	      0.00000000	      0.00000000	     93.65971225	    -31.79766372	      4.22611508	     96.92671298	      1.69169027	     33.31906914	      0.00000000	      0.00000000	    -18.31954327	      0.17972264	      6.16390121	    -30.79017481	    -51.31317318	     38.11883238	     95.53682338	     87.79051017	      0.00000000	      0.00000000	    -12.60039208	    -58.03311341	     52.28417918	    100.07632947	     87.81942673	      0.00000000	      0.00000000
      6.36000000	    -32.84451203	     -1.92019356	      1.18583375	     -0.32121522	      0.63790998	     -0.84255205	     95.07651752	    -30.62961060	     -2.04436063	     97.93071829	      1.70921347	     30.56400106	      0.00000000	      0.00000000	     94.05028046	    -32.00043330	      4.27832784	     97.32287114	      1.69860454	     33.37984379	      0.00000000	      0.00000000	    -18.67953969	      0.16420514	      6.27073511	    -30.91357284	    -51.42139255	     38.03493165	     95.63425326	     87.79315259	      0.00000000	      0.00000000	    -12.57947764	    -58.17984634	     52.20892613	    100.22474098	     87.81815256	      0.00000000	      0.00000000
      6.36500000	    -33.04115875	     -1.90190097	      1.11124268	     -0.32266369	      0.63513974	     -0.84238355	     95.69078465	    -30.72050769	     -1.97867880	     98.23231214	      1.71447728	     30.43044197	      0.00000000	      0.00000000	     94.70222441	    -32.16036294	      4.44561615	     97.68174383	      1.70486805	     33.21161441	      0.00000000	      0.00000000	    -18.89801806	      0.16774610	      6.42951853	    -31.58699883	    -51.53952084	     37.42362180	     96.16019703	     87.78095656	      0.00000000	      0.00000000	    -12.78233797	    -58.58883180	     51.93517307	    101.01211629	     87.81652231	      0.00000000	      0.00000000
      6.37000000	    -33.06682943	     -1.88085932	      1.04889742	     -0.32340603	      0.63289051	     -0.84240651	     96.03989341	    -30.95262499	     -2.07846150	     98.54140793	      1.71987202	     30.46474739	      0.00000000	      0.00000000	     95.05243000	    -32.39462487	      4.43839213	     98.04709525	      1.71124463	     33.26948151	      0.00000000	      0.00000000	    -19.24369233	      0.19868183	      6.54322609	    -31.76555200	    -51.62075404	     37.35077372	     96.21259624	     87.78594017	      0.00000000	      0.00000000	    -12.76813117	    -58.67410756	     51.83615459	    101.15551397	     87.81449528	      0.00000000	      0.00000000
      6.37500000	    -33.07688243	     -1.87823533	      0.96667595	     -0.32420149	      0.63073322	     -0.84234982	     96.36568313	    -31.13326831	     -2.16910209	     98.85911327	      1.72541702	     30.46271070	      0.00000000	      0.00000000	     95.41771051	    -32.65614052	      4.47326099	     98.40426374	      1.71747840	     33.30051222	      0.00000000	      0.00000000	    -19.60504677	      0.22675994	      6.65784827	    -31.97465213	    -51.74919943	     37.22059026	     96.39866179	     87.78521227	      0.00000000	      0.00000000	    -12.82315907	    -58.86594251	     51.76365313	    101.46768149	     87.81550245	      0.00000000	      0.00000000
      6.38000000	    -33.15787751	     -2.00133818	      0.86469922	     -0.32539008	      0.62836540	     -0.84221560	     96.67760946	    -31.22853901	     -2.34917295	     99.09837434	      1.72959292	     30.32057116	      0.00000000	      0.00000000	     96.02346660	    -32.89269208	      4.75667362	     98.72933827	      1.72315202	     33.08236502	      0.00000000	      0.00000000	    -19.96252109	      0.40132411	      7.02921843	    -33.33289620	    -51.67886123	     35.67352493	     96.99561512	     87.78063574	      0.00000000	      0.00000000	    -13.09559166	    -59.13129100	     51.24860317	    102.16355699	     87.81923129	      0.00000000	      0.00000000
      6.38500000	    -33.18793930	     -1.98784657	      0.79960264	     -0.32642419	      0.62646476	     -0.84222661	     96.99678467	    -31.40958718	     -2.45354911	     99.32450838	      1.73353970	     30.34293781	      0.00000000	      0.00000000	     96.34990412	    -33.12650124	      4.70697755	     98.99527101	      1.72779342	     33.15109297	      0.00000000	      0.00000000	    -20.28533122	      0.43076038	      7.12856507	    -33.39927790	    -51.80378665	     35.69724695	     97.06305162	     87.79554558	      0.00000000	      0.00000000	    -13.01715773	    -59.23155572	     51.22316600	    102.35132251	     87.81901055	      0.00000000	      0.00000000
      6.39000000	    -33.19531754	     -1.99755451	      0.69515818	     -0.32719923	      0.62453566	     -0.84209855	     97.26644707	    -31.52649008	     -2.55320210	     99.57825279	      1.73796837	     30.32842015	      0.00000000	      0.00000000	     96.68791100	    -33.43454434	      4.71505703	     99.30028867	      1.73311699	     33.19317572	      0.00000000	      0.00000000	    -20.59024573	      0.45943388	      7.28393520	    -33.56484067	    -51.97056461	     35.73612768	     97.24149417	     87.80929664	      0.00000000	      0.00000000	    -12.99985249	    -59.41355996	     51.25814938	    102.70669423	     87.82565067	      0.00000000	      0.00000000
